Coordinates
version=1
nRows=13
nColumns=36
inDegrees=yes

Units are S.I. units (second, meters, Newtons, ...)
If the header above contains a line with 'inDegrees', this indicates whether rotational values are in degrees (yes) or radians (no).

endheader
time	pelvis_tilt	pelvis_list	pelvis_rotation	pelvis_tx	pelvis_ty	pelvis_tz	hip_flexion_r	hip_adduction_r	hip_rotation_r	knee_angle_r	knee_angle_r_beta	ankle_angle_r	subtalar_angle_r	mtp_angle_r	hip_flexion_l	hip_adduction_l	hip_rotation_l	knee_angle_l	knee_angle_l_beta	ankle_angle_l	subtalar_angle_l	mtp_angle_l	lumbar_extension	lumbar_bending	lumbar_rotation	arm_flex_r	arm_add_r	arm_rot_r	elbow_flex_r	pro_sup_r	arm_flex_l	arm_add_l	arm_rot_l	elbow_flex_l	pro_sup_l
      1.48750000	      2.30082114	     -0.68328937	     -0.33486986	     -0.95796077	      1.23075592	     -0.05744419	     -6.37306803	      0.19741319	     -2.82513929	      1.42969967	      0.02495297	      6.15006627	     -9.77573389	     -7.49999987	     -5.30225551	     -2.26690026	     -1.45925571	      4.47417327	      0.07808905	      7.61334841	     -6.41752815	     -7.49999987	    -11.27415701	      0.84786899	      0.90824094	      4.69911718	    -13.52331893	     -1.31668157	     32.19453297	     62.28671443	      5.21622047	    -14.78382142	     13.43082077	     30.00242822	     64.78321464
      1.49166670	      2.26523397	     -0.61922810	     -0.31229054	     -0.95775998	      1.23068737	     -0.05763980	     -6.28995086	      0.08373142	     -2.92915718	      1.43991242	      0.02513121	      6.18948385	     -9.59895523	     -7.49999987	     -5.26979609	     -2.14264236	     -1.33671075	      4.36965047	      0.07626479	      7.45473193	     -6.39706935	     -7.49999987	    -11.33819280	      0.83733845	      0.86353748	      4.81314486	    -13.52918548	     -1.34326329	     32.09836860	     62.33614298	      5.32343078	    -14.71764862	     13.48871049	     29.89838116	     64.88376957
      1.49583330	      2.34823089	     -0.61753376	     -0.31805194	     -0.95720078	      1.22831273	     -0.05723319	     -6.36394637	      0.04885177	     -3.11390522	      1.46026798	      0.02548648	      6.27212791	     -9.43096276	     -7.49999987	     -5.38371924	     -2.10811675	     -1.32621899	      4.28038416	      0.07470680	      7.48753604	     -6.25857176	     -7.49999987	    -11.48020822	      0.85008714	      0.84543747	      4.81486482	    -13.50186551	     -1.59004365	     32.20958603	     61.97329123	      5.31295774	    -14.68372146	     13.31865692	     30.00028012	     64.22296585
      1.50000000	      2.35342843	     -0.62662784	     -0.36445729	     -0.95717722	      1.22832276	     -0.05672829	     -6.34334529	      0.03212877	     -3.16774702	      1.50259071	      0.02622516	      6.16730076	     -9.60861058	     -7.49999987	     -5.41818032	     -2.08274187	     -1.37132781	      4.22693120	      0.07377387	      7.50252043	     -6.11809277	     -7.49999987	    -11.47408257	      0.87079038	      0.85741646	      4.85091845	    -13.46945104	     -1.72125050	     32.14149888	     61.88356537	      5.27894517	    -14.63262073	     13.23090502	     29.95679484	     64.07995315
      1.50416670	      2.36096575	     -0.65361603	     -0.38679507	     -0.95801527	      1.22614701	     -0.05700466	     -6.29743529	      0.04187344	     -3.15868397	      1.62411128	      0.02834609	      6.00981305	    -10.07092018	     -7.49999987	     -5.40844981	     -2.08917978	     -1.35567898	      4.26360776	      0.07441399	      7.52614296	     -6.24099817	     -7.49999987	    -11.49077263	      0.90965170	      0.87000606	      4.88596477	    -13.61388839	     -1.33950613	     32.08334913	     61.98894936	      5.35480959	    -14.65665116	     13.53693834	     29.88915842	     64.22684269
      1.50833330	      2.38404109	     -0.68096366	     -0.40067593	     -0.95663070	      1.22686522	     -0.05700223	     -6.30511461	      0.06990728	     -3.18087305	      1.72208958	      0.03005613	      5.90776480	    -10.34799349	     -7.49999987	     -5.44489223	     -2.11603044	     -1.36495503	      4.30376803	      0.07511492	      7.58120166	     -6.28391336	     -7.49999987	    -11.52957471	      0.94942934	      0.85740010	      4.88210179	    -13.64873731	     -1.33371396	     32.12072792	     62.05459856	      5.28822519	    -14.64439562	     13.47703028	     29.93016601	     64.37888306
      1.51250000	      2.35904645	     -0.69944040	     -0.38075652	     -0.95607634	      1.22803708	     -0.05660939	     -6.28584920	      0.11180838	     -3.15497955	      1.75197610	      0.03057775	      5.96728512	    -10.40429412	     -7.49999987	     -5.42993155	     -2.14931288	     -1.30701721	      4.35226570	      0.07596137	      7.60774495	     -6.27042743	     -7.49999987	    -11.47396187	      0.97114024	      0.82278643	      4.85831916	    -13.66909585	     -1.21773228	     32.08223565	     62.18273731	      5.23407667	    -14.65634833	     13.51395040	     29.88326962	     64.65383703
      1.51666670	      2.36808193	     -0.72143005	     -0.36778396	     -0.95626788	      1.22903033	     -0.05628350	     -6.33962718	      0.15875845	     -3.21672128	      1.75741502	      0.03067268	      6.01075916	    -10.34061232	     -7.49999987	     -5.48330177	     -2.19795988	     -1.35437648	      4.31411648	      0.07529554	      7.58029199	     -6.11008929	     -7.49999987	    -11.50225732	      0.99663775	      0.79871229	      4.81875684	    -13.62023933	     -1.52054874	     32.19696842	     61.99747646	      5.13779375	    -14.63080325	     13.24312968	     30.04570756	     64.36506303
      1.52083330	      2.37606090	     -0.74811882	     -0.37018741	     -0.95621976	      1.22959517	     -0.05669220	     -6.36464757	      0.20294787	     -3.33217893	      1.75647625	      0.03065629	      6.19793778	     -9.99516964	     -7.49999987	     -5.51900345	     -2.24143246	     -1.35404562	      4.30315100	      0.07510415	      7.61443719	     -6.03345747	     -7.49999987	    -11.52454107	      1.02150540	      0.79953358	      4.83279243	    -13.57212149	     -1.64104426	     32.13577931	     61.88059273	      5.11002929	    -14.59213004	     13.10960145	     29.98200781	     64.16586083
      1.52500000	      2.38377116	     -0.75032107	     -0.40697540	     -0.95528620	      1.22907651	     -0.05690808	     -6.41720490	      0.19829050	     -3.27638635	      1.71768535	      0.02997926	      6.22738428	     -9.92792081	     -7.49999987	     -5.58745165	     -2.24676690	     -1.47471642	      4.23985591	      0.07399945	      7.59865826	     -5.87034014	     -7.49999987	    -11.53540896	      1.03028235	      0.81033917	      4.75998625	    -13.56976909	     -1.74539745	     32.26476899	     61.75249349	      5.01469931	    -14.57443889	     12.98359944	     30.11598255	     63.94010146
      1.52916670	      2.26767953	     -0.76173558	     -0.39514319	     -0.95605648	      1.22786590	     -0.05594279	     -6.30440215	      0.24230648	     -3.34906898	      1.67890528	      0.02930242	      6.39490547	     -9.57341828	     -7.49999987	     -5.48221636	     -2.27625278	     -1.50475234	      4.21266692	      0.07352491	      7.70568835	     -5.73554364	     -7.49999987	    -11.36509618	      1.03715388	      0.80099622	      4.75385627	    -13.47982915	     -1.94664792	     32.09881302	     61.52622866	      4.98111111	    -14.50856871	     12.76963395	     29.97196501	     63.55180919
      1.53333330	      2.27902173	     -0.76589465	     -0.34928871	     -0.95588879	      1.22920600	     -0.05729625	     -6.36933573	      0.24674663	     -3.26270871	      1.59709328	      0.02787454	      6.42316372	     -9.52376981	     -7.49999987	     -5.48432421	     -2.28940006	     -1.44523199	      4.21915718	      0.07363818	      7.60424853	     -5.93791737	     -7.49999987	    -11.42672794	      1.07138033	      0.78229430	      4.75476074	    -13.54929509	     -1.88621963	     32.22217000	     61.49903100	      5.00339442	    -14.52926081	     12.82288825	     30.08129848	     63.48825545
      1.53750000	      2.15656197	     -0.76010689	     -0.32394655	     -0.95741598	      1.22419584	     -0.05811383	     -6.21096135	      0.23133963	     -3.00202305	      1.59388176	      0.02781848	      6.25756144	    -10.05834961	     -7.49999987	     -5.24990521	     -2.26187044	     -1.24304291	      4.32130008	      0.07542091	      7.57811565	     -6.41172088	     -7.49999987	    -11.35768784	      1.10233849	      0.77099785	      4.79504797	    -13.71771488	     -1.24153397	     32.15534638	     61.95813684	      5.05920292	    -14.58496716	     13.30961589	     29.96266316	     64.36696899
